<?xml version="1.0" encoding="iso-8859-1"?>
<!-- Generator: Adobe Illustrator 19.0.0, SVG Export Plug-In . SVG Version: 6.00 Build 0)  -->
<svg version="1.1" id="Capa_1" xmlns="http://www.w3.org/2000/svg" xmlns:xlink="http://www.w3.org/1999/xlink" x="0px" y="0px"
	 viewBox="0 0 512 512" style="enable-background:new 0 0 512 512;" xml:space="preserve">
<circle style="fill:#E02424;" cx="256" cy="256" r="256"/>
<path style="fill:#990011;" d="M511.96,259.137l-79.513-79.513c-8.277-9.226-19.317-15.912-31.804-18.768L367.662,126.5H144.338
	v156.941c0,18.803,8.22,35.766,21.23,47.513l32.654,32.685H84.992c-6.728,0-12.233,5.505-12.233,12.233v7.395
	c0,3.382,1.393,6.451,3.632,8.67L187.735,502.78c21.734,6,44.622,9.22,68.265,9.22C396.336,512,510.277,399.074,511.96,259.137z"/>
<rect x="205.64" y="346.18" style="fill:#D9D9DB;" width="100.73" height="18.994"/>
<rect x="256" y="346.18" style="fill:#AEADB3;" width="50.36" height="18.99"/>
<path style="fill:#FFC473;" d="M427.009,395.5H84.992c-6.728,0-12.233-5.505-12.233-12.233v-7.395
	c0-6.728,5.505-12.233,12.233-12.233h342.017c6.728,0,12.233,5.505,12.233,12.233v7.395
	C439.242,389.995,433.737,395.5,427.009,395.5z"/>
<path style="fill:#FFAA20;" d="M439.24,375.87v7.4c0,6.72-5.5,12.23-12.23,12.23H256v-31.86h171.01
	C433.74,363.64,439.24,369.14,439.24,375.87z"/>
<path style="fill:#FFFFFF;" d="M387.04,159.308c-6.773,0-13.285,1.126-19.378,3.173V126.5H144.338v156.941
	c0,35.245,28.836,64.081,64.081,64.081h95.162c35.245,0,64.081-28.836,64.081-64.081v-5.283c6.093,2.047,12.604,3.173,19.378,3.173
	c33.642,0,61.011-27.37,61.011-61.011C448.051,186.678,420.681,159.308,387.04,159.308z M387.04,260.61
	c-7.02,0-13.624-1.809-19.378-4.979v-70.624c5.753-3.17,12.358-4.979,19.378-4.979c22.216,0,40.291,18.075,40.291,40.291
	S409.256,260.61,387.04,260.61z"/>
<path style="fill:#E1E1E3;" d="M387.04,159.31c-6.77,0-13.28,1.12-19.38,3.17V126.5H256v221.02h47.58c0.93,0,1.86-0.02,2.78-0.06
	c33.98-1.47,61.3-29.7,61.3-64.02v-5.28c6.1,2.04,12.61,3.17,19.38,3.17c33.64,0,61.01-27.37,61.01-61.01
	C448.05,186.68,420.68,159.31,387.04,159.31z M387.04,260.61c-7.02,0-13.62-1.81-19.38-4.98v-70.62c5.76-3.17,12.36-4.98,19.38-4.98
	c22.22,0,40.29,18.07,40.29,40.29C427.33,242.54,409.26,260.61,387.04,260.61z"/>
<rect x="187.21" y="126.5" style="fill:#FFC473;" width="12.588" height="78.5"/>
<rect x="175.67" y="203" style="fill:#FF8900;" width="35.667" height="52"/>
<g>
</g>
<g>
</g>
<g>
</g>
<g>
</g>
<g>
</g>
<g>
</g>
<g>
</g>
<g>
</g>
<g>
</g>
<g>
</g>
<g>
</g>
<g>
</g>
<g>
</g>
<g>
</g>
<g>
</g>
</svg>
