<?xml version="1.0" encoding="utf-8"?>
<!-- Generator: Adobe Illustrator 21.1.0, SVG Export Plug-In . SVG Version: 6.00 Build 0)  -->
<svg version="1.1" id="Capa_1" xmlns="http://www.w3.org/2000/svg" xmlns:xlink="http://www.w3.org/1999/xlink" x="0px" y="0px"
	 viewBox="0 0 800 600" style="enable-background:new 0 0 800 600;" xml:space="preserve">
<style type="text/css">
	.st0{fill:#FFFFFF;}
</style>
<g>
	<g>
		<g>
			<path class="st0" d="M108.2,422.4c1.7,1.7,3.9,2.6,6.2,2.6s4.5-0.9,6.2-2.6l109.9-109.9l109.9,109.9c1.7,1.7,3.9,2.6,6.2,2.6
				c2.1,0,4.5-0.9,6.2-2.6c3.5-3.5,3.5-9.1,0-12.5L243.1,300L353,190.1c3.5-3.5,3.5-9.1,0-12.5s-9.1-3.5-12.5,0L230.6,287.5
				L120.7,177.6c-3.5-3.5-9.1-3.5-12.5,0s-3.5,9.1,0,12.5L218.1,300L108.2,409.9C104.8,413.4,104.8,419,108.2,422.4z"/>
		</g>
	</g>
</g>
</svg>
