<?xml version="1.0" encoding="utf-8"?>
<!-- Generator: Adobe Illustrator 21.1.0, SVG Export Plug-In . SVG Version: 6.00 Build 0)  -->
<svg version="1.1" id="Capa_1" xmlns="http://www.w3.org/2000/svg" xmlns:xlink="http://www.w3.org/1999/xlink" x="0px" y="0px"
	 viewBox="0 0 800 600" style="enable-background:new 0 0 800 600;" xml:space="preserve">
<style type="text/css">
	.st0{fill:#FFFFFF;}
</style>
<g>
	<g>
		<g>
			<g>
				<path class="st0" d="M403.1,279.4H109.2c-7,0-13,5.6-13.1,12.7c-0.2,7.4,5.6,13.6,13,13.6H403c7,0,13-5.6,13.1-12.7
					C416.3,285.5,410.4,279.4,403.1,279.4z"/>
			</g>
		</g>
		<g>
			<g>
				<path class="st0" d="M403.1,178.9H109.2c-7,0-13,5.6-13.1,12.7c-0.2,7.4,5.6,13.6,13,13.6H403c7,0,13-5.6,13.1-12.7
					C416.3,185.1,410.4,178.9,403.1,178.9z"/>
			</g>
		</g>
		<g>
			<g>
				<path class="st0" d="M403.1,379.9H109.2c-7,0-13,5.6-13.1,12.7c-0.2,7.4,5.6,13.6,13,13.6H403c7,0,13-5.6,13.1-12.7
					C416.3,386,410.4,379.9,403.1,379.9z"/>
			</g>
		</g>
	</g>
</g>
</svg>
